<svg id="visual" viewBox="0 0 900 600" width="900" height="600" xmlns="http://www.w3.org/2000/svg"
	xmlns:xlink="http://www.w3.org/1999/xlink" version="1.1">
	<rect x="0" y="0" width="900" height="600" fill="#ffffff"></rect>
	<path d="M0 379L21.5 386.2C43 393.3 86 407.7 128.8 402.3C171.7 397 214.3 372 257.2 359.7C300 347.3 343 347.7 385.8 351.3C428.7 355 471.3 362 514.2 370.5C557 379 600 389 642.8 399.8C685.7 410.7 728.3 422.3 771.2 418.2C814 414 857 394 878.5 384L900 374L900 601L878.5 601C857 601 814 601 771.2 601C728.3 601 685.7 601 642.8 601C600 601 557 601 514.2 601C471.3 601 428.7 601 385.8 601C343 601 300 601 257.2 601C214.3 601 171.7 601 128.8 601C86 601 43 601 21.5 601L0 601Z"
		fill="#0066FF" stroke-linecap="round" stroke-linejoin="miter"></path>
</svg>