<svg id="visual" viewBox="0 0 900 600" width="900" height="600" xmlns="http://www.w3.org/2000/svg" xmlns:xlink="http://www.w3.org/1999/xlink" version="1.1"><rect x="0" y="0" width="900" height="600" fill="#002233"></rect><path d="M657 600L666.2 587.5C675.3 575 693.7 550 693.3 525C693 500 674 475 662.3 450C650.7 425 646.3 400 650.7 375C655 350 668 325 679.7 300C691.3 275 701.7 250 706.2 225C710.7 200 709.3 175 698.3 150C687.3 125 666.7 100 658.7 75C650.7 50 655.3 25 657.7 12.5L660 0L900 0L900 12.5C900 25 900 50 900 75C900 100 900 125 900 150C900 175 900 200 900 225C900 250 900 275 900 300C900 325 900 350 900 375C900 400 900 425 900 450C900 475 900 500 900 525C900 550 900 575 900 587.5L900 600Z" fill="#0066FF" stroke-linecap="round" stroke-linejoin="miter"></path></svg>